<?xml version="1.0" encoding="utf-8"?>
<!-- Generator: Adobe Illustrator 17.1.0, SVG Export Plug-In . SVG Version: 6.00 Build 0)  -->
<!DOCTYPE svg PUBLIC "-//W3C//DTD SVG 1.1//EN" "http://www.w3.org/Graphics/SVG/1.1/DTD/svg11.dtd">
<svg version="1.1" id="Layer_1" xmlns="http://www.w3.org/2000/svg" xmlns:xlink="http://www.w3.org/1999/xlink" x="0px" y="0px"
	 viewBox="0 0 792 612" enable-background="new 0 0 792 612" xml:space="preserve">
<rect x="194.8" y="94.4" fill="#986828" width="440" height="405.2"/>
<g>
	<g id="open">
		<path fill="#582931" d="M276.8,163.4h284.3c9.9,0,17.9,8,17.9,17.9v17.5c0,9.9-8,17.9-17.9,17.9H276.8c-9.9,0-17.9-8-17.9-17.9
			v-17.5C258.9,171.4,266.9,163.4,276.8,163.4z"/>
	</g>
	<g id="open_1_">
		<path fill="#582931" d="M276.9,269.8h284c9.9,0,18,8,18,18V305c0,9.9-8,18-18,18h-284c-9.9,0-18-8-18-18v-17.2
			C258.9,277.8,267,269.8,276.9,269.8z"/>
	</g>
	<g id="open_2_">
		<path fill="#582931" d="M280.2,376.2h277.5c11.7,0,21.2,9.5,21.2,21.2v10.7c0,11.7-9.5,21.2-21.2,21.2H280.2
			c-11.7,0-21.2-9.5-21.2-21.2v-10.7C258.9,385.7,268.5,376.2,280.2,376.2z"/>
	</g>
</g>
</svg>
