<?xml version="1.0" encoding="utf-8"?>
<!-- Generator: Adobe Illustrator 17.1.0, SVG Export Plug-In . SVG Version: 6.00 Build 0)  -->
<!DOCTYPE svg PUBLIC "-//W3C//DTD SVG 1.1//EN" "http://www.w3.org/Graphics/SVG/1.1/DTD/svg11.dtd">
<svg version="1.1" id="Layer_1" xmlns="http://www.w3.org/2000/svg" xmlns:xlink="http://www.w3.org/1999/xlink" x="0px" y="0px"
	 viewBox="191.5 186.9 386.1 323.2" enable-background="new 191.5 186.9 386.1 323.2" xml:space="preserve">
<g enable-background="new    ">
	<path fill="#FFFFFF" d="M290.1,295.8c-8.9,0.4-18.8,0.6-29.7,0.6h-2.6c-20.2,36.8-32.3,61.7-36.2,74.7c-0.6,1.7-0.9,3.3-0.9,4.7
		c0,4.3,3.8,6.5,11.4,6.5c3.2,0,6.6-0.6,10.3-1.8c3.7-1.2,8.3-3.4,13.7-6.5c5.4-3.1,11.4-8,18.2-14.7c6.7-6.7,13.6-14.9,20.7-24.5
		c0.9-1.6,2.2-2.4,3.9-2.4c1.1,0,1.7,0.6,1.7,1.7c0,0.3-0.1,0.9-0.4,1.7c-6.9,17.7-15.6,33.4-26.3,47.4c-0.9,2-3,3.3-6.5,3.9
		c-11.8,0.6-24.2,0.9-37.3,0.9c-14.9,0-27-0.5-36.2-1.5c-1.7-0.1-2.6-1.2-2.6-3c0-1.1,0.3-2.3,0.9-3.4c8.2-18.4,23.6-46.3,46.3-83.8
		l-9.7-0.2c-1.9,0-2.8-0.6-2.8-1.7c0-1.1,0.6-2.2,1.8-3.1c1.2-0.9,2.5-1.4,3.8-1.4h11l26.1-41.8c2.2-3.9,3.2-7.4,3.2-10.6
		c0-2.2-0.5-4-1.4-5.6c-0.9-1.6-1.9-2.7-2.9-3.2l-1.5-0.9c-1.3-0.7-1.9-1.5-1.9-2.4c0-0.6,0.2-1.1,0.8-1.5c0.5-0.4,1-0.7,1.6-0.9
		l0.9-0.2c14.8-0.9,30.1-1.3,46.1-1.3c13.2,0,23.8,0.4,31.9,1.1c2.2,0,3.2,0.9,3.2,2.8c0,0.4-0.2,1.2-0.6,2.4
		c-4.7,11.9-9.5,21.2-14.4,28c-0.7,0.7-1.5,1.1-2.4,1.1c-1.3,0-1.9-0.9-1.9-2.8c0.7-2.7,1.1-5.7,1.1-8.8c0-11.8-5.9-17.7-17.7-17.7
		h-0.9c-7.3,0-12.6,2-15.7,6c-7.3,9-17.1,24.6-29.3,46.7c-1.4,2.4-3.2,5.5-5.4,9.3h32.3c1.4,0,2.2,0.4,2.2,1.3s-0.6,1.9-1.8,3
		C292.9,295,291.5,295.7,290.1,295.8z"/>
	<path fill="#FFFFFF" d="M336.6,352.5c6-6,14-14.7,23.9-26.1c0.4-0.4,0.8-0.6,1.1-0.6c0.3,0,0.4,0.3,0.4,0.9c0,2.7-1.1,5.4-3.2,8
		c-10.6,11.8-20,21.6-28.2,29.5c-17.9,16.9-29.4,25.4-34.2,25.4c-2.2,0-3.2-1.5-3.2-4.5c0-1.6,0.2-3.3,0.5-5.2
		c0.4-1.9,1-3.9,1.8-6.1c0.9-2.2,1.6-4.1,2.3-5.6c0.6-1.5,1.6-3.7,2.8-6.5c1.2-2.8,2-4.7,2.5-5.7c4-9,16.4-32.9,37-71.5
		c28.3-51.5,54.3-83.2,77.9-95c3.4-1.7,6.9-2.6,10.3-2.6c4,0,6,1.9,6,5.6c0,8.6-2.9,18.1-8.8,28.3c-5.9,10.3-13.1,19.7-21.5,28.3
		c-8.5,8.6-16.8,16.1-24.9,22.6c-8.1,6.5-15.1,11.3-21,14.6c-0.9,0.3-1.7,0.9-2.4,1.9c-6.3,10.2-12.5,21.1-18.5,32.8
		c-6,11.7-10.6,20.9-13.6,27.7l-4.3,9.9c-0.7,2.2-1.1,3.6-1.1,4.3c0,1.3,0.5,1.9,1.5,1.9C322.7,364.9,328.3,360.8,336.6,352.5z
		 M359.6,280.1c10.2-7.2,19.3-15.3,27.5-24.4c8.1-9.1,14.3-17.5,18.5-25.2c4.2-7.7,7.4-14.3,9.6-19.9c2.2-5.6,3.2-9.6,3.2-12.1
		c0-1.4-0.5-2.2-1.5-2.2c-2,0-4.5,1.4-7.3,4.3c-5.5,5.5-11.6,13.3-18.5,23.7c-6.9,10.3-12.5,19.2-16.7,26.6
		c-4.2,7.4-9.7,17.3-16.5,29.6C358.5,280.5,359.1,280.4,359.6,280.1z"/>
	<path fill="#FFFFFF" d="M389.6,361.3c7.6-7,18.5-18.7,32.7-34.9c0.4-0.4,0.8-0.6,1.1-0.6c0.3,0,0.4,0.3,0.4,0.9
		c0,2.7-1.1,5.4-3.2,8c-10.6,11.8-20,21.6-28.2,29.5c-6,6-13.2,11.8-21.5,17.3c-8.3,5.5-15.2,8.3-20.7,8.3c-6.6,0-9.9-4.6-9.9-13.8
		c0-15.2,5.6-31.1,16.9-47.8c11.3-16.7,24.3-27.9,39.1-33.8c6.2-2.6,11.8-3.9,16.8-3.9c5.6,0,8.4,2.2,8.4,6.7
		c0,8.3-5.9,17.9-17.7,28.6c-11.8,10.8-25,18.9-39.6,24.5c-0.6,0.1-1.1,0.6-1.5,1.5c-2.2,5.9-3.2,11.1-3.2,15.7
		c0,5.2,1.9,7.8,5.8,7.8C371.4,375.3,379.5,370.6,389.6,361.3z M399.3,312c1.7-3.6,2.6-6.7,2.6-9.5c0-2.3-0.7-3.4-2.2-3.4
		c-0.9,0-1.8,0.3-2.9,0.8c-1.1,0.5-1.9,1-2.5,1.6l-1.1,0.9c-4.5,3.9-10,10.9-16.7,21.2c-6.7,10.3-10,16.8-10,19.7
		c0,0.6,0.1,0.9,0.4,0.9c0.9,0,2.8-0.7,5.7-2.2c2.9-1.4,7.2-4.8,12.7-10.1C390.9,326.5,395.5,319.9,399.3,312z"/>
	<path fill="#FFFFFF" d="M452.4,349c0.6-1.1,0.9-1.9,0.9-2.4l-2.2,1.5c-4.5,5.2-9.6,10.5-15.4,15.9c-5.8,5.5-10.5,9.7-14.1,12.7
		l-5.4,4.3c-5.9,4.3-10.3,6.5-13.4,6.5c-2.9,0-4.3-2.1-4.3-6.2c0-10.3,3.8-22.5,11.4-36.6c7.6-14.1,17.5-26.4,29.6-37
		c12.1-10.6,23.6-15.9,34.6-15.9c2.2,0,4,0.3,5.5,0.8c1.5,0.5,2.6,1,3.2,1.4c0.6,0.4,1,0.6,1.2,0.6c0.3,0,0.6-0.2,1.1-0.6
		c0.9-1.1,2-2.6,3.3-4.3c1.4-1.7,3.7-4.1,7-7c3.3-2.9,6-4.4,8-4.4c1,0,1.5,0.7,1.5,2.2c0,2-1,5-3,9c-15.4,28.3-24.7,45.4-28,51.2
		c-1.2,2.2-3.8,6.8-7.9,13.9c-4.1,7.1-7,12.2-8.7,15.2c9-7.3,16.5-13.6,22.4-18.9c6.3-6.6,13.7-14.7,22.2-24.3
		c0.4-0.4,0.8-0.6,1.1-0.6c0.3,0,0.4,0.3,0.4,0.9c0,2.7-1.1,5.4-3.2,8c-6.3,6.9-11.8,12.8-16.4,17.7c-6,6.3-16.8,15.5-32.3,27.6
		l-5.6,10.3c-27.7,51-46.8,84.1-57.3,99.5c-1,1.6-2.3,3.5-3.9,5.7c-1.6,2.2-4.2,5.2-7.8,9c-3.6,3.8-6.5,5.7-8.6,5.7
		c-3.4,0-5.2-5-5.2-14.9c0-14.6,5.2-30.6,15.7-47.8c11.1-18.2,28.3-37,51.7-56.2L452.4,349z M384.4,447c-1.1,1.7-2.5,4-4.1,6.8
		c-1.6,2.8-3.7,7.6-6.5,14.4c-2.7,6.8-4.1,12.5-4.1,17.1c0,2.4,0.4,3.7,1.3,3.7c0.7,0,1.8-0.7,3.2-2c1.4-1.4,2.7-2.8,3.7-4.2
		l1.5-2.2c12.1-18.7,27.3-45,45.6-79C407,417.2,393.4,432.3,384.4,447z M481.1,298.8c0.1-0.1,0.2-0.4,0.2-0.9c0-1-1.2-1.5-3.4-1.5
		c-5.7,0-13.1,4.5-22.2,13.4c-9,8.9-16.9,18.7-23.5,29.3c-6.6,10.6-9.9,18.4-9.9,23.5c0,2,0.9,3,2.6,3c1.6,0,3.6-1,6-3
		c2.2-1.9,5.1-4.5,8.7-7.9c3.7-3.4,9.9-10.6,18.8-21.6C467.4,322,474.9,310.6,481.1,298.8z"/>
	<path fill="#FFFFFF" d="M575.6,309.2c1.3,0.3,1.9,0.7,1.9,1.3c0,0.9-0.6,1.9-1.7,3c-1.6,1.6-3.9,3.7-7,6.2
		c-3.1,2.6-4.9,4.2-5.5,4.7l-3,4.1c-3,8.5-7.6,17.3-13.9,26.4c-6.2,9.1-13.9,17.1-22.8,24c-9,6.9-17.5,10.3-25.7,10.3
		c-10.2,0-15.3-6.2-15.3-18.7c0-11.1,3.6-23,10.8-35.9c7.2-12.8,16.5-23.8,27.9-32.9c11.4-9.1,22.6-13.7,33.7-13.7
		c8,0,12.1,3.2,12.1,9.5c0,3.4-1.7,8.1-5.2,14c-0.1,0.1-0.2,0.4-0.2,0.6c0,0.3,0.1,0.4,0.4,0.4C567.3,310.5,571.9,309.3,575.6,309.2
		z M555.1,314.3c1.1-5,1.7-8.9,1.7-11.6c0-6-2-9-6-9c-5.6,0-12.6,5.2-20.9,15.5c-8.3,10.3-15.5,22-21.4,34.9
		c-6,12.9-8.9,23.1-8.9,30.6c0,5.5,1.9,8.2,5.8,8.2c6,0,13.2-6,21.6-18.1c8.4-12.1,13.5-24.2,15.2-36.4c-0.1-0.3-0.2-0.7-0.2-1.3
		c0-4.2,3.7-7.9,11.2-11.2C554.4,315.4,555,314.9,555.1,314.3z"/>
</g>
</svg>
